<?xml version="1.0" encoding="UTF-8"?>
<svg id="Layer_4" data-name="Layer 4" xmlns="http://www.w3.org/2000/svg" viewBox="0 0 1963.93 1144.61">
  <defs>
    <style>
      .cls-1 {
        fill: #666;
      }

      .cls-2 {
        stroke: #000;
        stroke-miterlimit: 10;
      }

      .cls-3 {
        fill: #898989;
      }
    </style>
  </defs>
  <path class="cls-1" d="M1058.67,248.37h-222.75s0,0,0,0l-124.4,312.48s0,0,0,0h222.75s0,0,0,0l124.4-312.48s0,0,0,0ZM924.4,531.15h-181.47l101.35-254.57h181.47l-101.35,254.57Z"/>
  <path class="cls-3" d="M832.32,554.97h-20.49c-2.2,0-3.7-2.22-2.89-4.26l4.97-12.47c.47-1.18,1.61-1.96,2.89-1.96h20.49c2.2,0,3.7,2.22,2.89,4.26l-4.97,12.47c-.47,1.18-1.61,1.96-2.89,1.96Z"/>
  <circle class="cls-2" cx="933.69" cy="263.6" r="5.47"/>
</svg>